# xmcd
#
# Track frame offsets: 
#        150
#        3928
#        17623
#        34110
#        50549
#        74431
#        91969
#        107849
#        123186
#        143070
#        159609
#
# Disc length: 2382 seconds
#
# Revision: 4
# Processed by: cddbd v1.5.2PL0 Copyright (c) Steve Scherf et al.
# Submitted via: ExactAudioCopyFreeDBPlugin 1.0
#
DISCID=88094c0b
DTITLE=ONE OK ROCK - 残響リファレンス
DYEAR=2011
DGENRE=Rock
TTITLE0=Coda
TTITLE1=LOST AND FOUND
TTITLE2=アンサイズニア
TTITLE3=NO SCARED
TTITLE4=C.h.a.o.s.m.y.t.h.
TTITLE5=Mr. 現代Speaker
TTITLE6=世間知らずの宇宙飛行士
TTITLE7=Re:make
TTITLE8=Pierce
TTITLE9=Let's take it someday
TTITLE10=キミシダイ列車
EXTD=YEAR: 2011
EXTT0=
EXTT1=
EXTT2=
EXTT3=
EXTT4=
EXTT5=
EXTT6=
EXTT7=
EXTT8=
EXTT9=
EXTT10=
PLAYORDER=
